<svg width="520" height="69" viewBox="0 0 520 69" fill="none" xmlns="http://www.w3.org/2000/svg">
<path d="M39.7091 0.818208C45.9491 0.818208 51.5588 1.76366 56.5382 3.65457C61.5176 5.54548 65.4569 8.35033 68.3563 12.0691C71.3188 15.7249 72.8 20.2 72.8 25.4946H52.8509C52.8509 22.7843 51.6533 20.6097 49.2582 18.9709C46.863 17.2691 43.9636 16.4182 40.56 16.4182C35.6436 16.4182 31.9248 17.7418 29.4036 20.3891C26.8824 22.9734 25.6218 26.6606 25.6218 31.4509V37.5018C25.6218 42.2921 26.8824 46.0109 29.4036 48.6582C31.9248 51.2424 35.6436 52.5346 40.56 52.5346C43.9636 52.5346 46.863 51.7467 49.2582 50.1709C51.6533 48.5321 52.8509 46.4521 52.8509 43.9309H38.1018V30.6946H72.8V67H62.0218L59.9418 60.5709C54.0169 65.6133 46.2642 68.1345 36.6836 68.1345C25.9054 68.1345 17.8061 65.3297 12.3854 59.72C6.96485 54.0473 4.25454 45.6327 4.25454 34.4764C4.25454 23.4461 7.31151 15.0946 13.4254 9.42184C19.6024 3.68609 28.3636 0.818208 39.7091 0.818208ZM125.557 67L122.815 57.8291H100.03L97.288 67H75.9207L99.6516 1.95276H123.95L147.681 67H125.557ZM104.379 43.2691H118.466L111.659 20.1055H111.281L104.379 43.2691ZM207.653 67V43.5527C207.653 40.6533 207.747 37.6909 207.936 34.6655C208.189 31.577 208.441 28.9927 208.693 26.9127C208.945 24.8327 209.102 23.5091 209.165 22.9418H208.787L196.78 67H180.424L168.322 23.0364H167.944C168.007 23.6037 168.164 24.9273 168.416 27.0073C168.732 29.0243 169.015 31.577 169.267 34.6655C169.519 37.6909 169.645 40.6533 169.645 43.5527V67H150.453V1.95276H179.951L189.784 39.4873H190.162L199.9 1.95276H228.358V67H207.653Z" fill="white"/>
<path d="M346.32 67V42.3236H323.345V67H302.451V1.95276H323.345V25.6837H346.32V1.95276H367.215V67H346.32ZM442.19 40.8109C442.19 49.6982 439.385 56.4739 433.775 61.1382C428.166 65.8024 420.192 68.1345 409.855 68.1345C399.518 68.1345 391.513 65.8024 385.841 61.1382C380.231 56.4739 377.426 49.6982 377.426 40.8109V1.95276H398.321V40.5273C398.321 44.183 399.298 47.1139 401.252 49.32C403.206 51.463 406.042 52.5346 409.761 52.5346C413.48 52.5346 416.316 51.4315 418.27 49.2255C420.287 47.0194 421.295 44.12 421.295 40.5273V1.95276H442.19V40.8109ZM495.703 1.95276C498.981 1.95276 501.975 2.64609 504.685 4.03276C507.458 5.35639 509.633 7.2473 511.209 9.70548C512.847 12.1637 513.667 14.9055 513.667 17.9309C513.667 25.9358 510.043 30.9782 502.794 33.0582V33.4364C511.051 35.3273 515.18 40.7479 515.18 49.6982C515.18 53.1018 514.329 56.1273 512.627 58.7745C510.988 61.3588 508.719 63.3758 505.82 64.8255C502.92 66.2752 499.737 67 496.271 67H452.401V1.95276H495.703ZM473.296 27.2909H487.667C489.054 27.2909 490.188 26.8182 491.071 25.8727C492.016 24.8643 492.489 23.6352 492.489 22.1855V21.24C492.489 19.8534 492.016 18.6873 491.071 17.7418C490.125 16.7334 488.991 16.2291 487.667 16.2291H473.296V27.2909ZM473.296 51.8727H489.18C490.566 51.8727 491.701 51.4 492.583 50.4546C493.529 49.4461 494.001 48.217 494.001 46.7673V45.8218C494.001 44.3721 493.529 43.1746 492.583 42.2291C491.701 41.2206 490.566 40.7164 489.18 40.7164H473.296V51.8727Z" fill="white"/>
<rect x="236.364" y="2" width="59.0909" height="14.7727" fill="#0679FF"/>
<path d="M236.108 26.8535H283.054V42.0418H236.108V26.8535Z" fill="#0679FF"/>
<rect x="236.364" y="52.2273" width="59.0909" height="14.7727" fill="#0679FF"/>
</svg>
